#tb 0: 1/25
0,          3,          3,        1,   518400, 0xd9444d71
0,          5,          5,        1,   518400, 0x491faf75
0,          7,          7,        1,   518400, 0xf8b4d15c
0,          9,          9,        1,   518400, 0x99d9f60c
0,         11,         11,        1,   518400, 0x46c17a6d
0,         13,         13,        1,   518400, 0x30b9447d
0,         15,         15,        1,   518400, 0x135d0c76
0,         17,         17,        1,   518400, 0x1b831a3c
0,         19,         19,        1,   518400, 0x5910def8
0,         21,         21,        1,   518400, 0x8db90147
0,         23,         23,        1,   518400, 0x6a2b79c7
0,         25,         25,        1,   518400, 0xc8d302e5
0,         27,         27,        1,   518400, 0x515bb024
0,         29,         29,        1,   518400, 0xedf7836c
0,         31,         31,        1,   518400, 0x7e247b9d
0,         32,         32,        1,   518400, 0x10c9bb10
0,         33,         33,        1,   518400, 0xe38e2807
